<?xml version="1.0" standalone="no"?>
<!DOCTYPE svg PUBLIC "-//W3C//DTD SVG 20010904//EN"
 "http://www.w3.org/TR/2001/REC-SVG-20010904/DTD/svg10.dtd">
<svg version="1.0" xmlns="http://www.w3.org/2000/svg"
 width="32.000000pt" height="32.000000pt" viewBox="0 0 32.000000 32.000000"
 preserveAspectRatio="xMidYMid meet">

<g transform="translate(0.000000,32.000000) scale(0.100000,-0.100000)"
fill="#03B8C9" stroke="none">
<path d="M112 287 c-18 -19 -22 -34 -21 -78 l2 -54 6 58 c7 60 25 87 61 87 36
0 54 -27 61 -87 l6 -58 2 56 c1 46 -3 59 -22 77 -30 28 -68 28 -95 -1z"/>
<path d="M143 243 c-27 -5 -28 -21 -8 -118 21 -96 20 -105 -9 -105 -13 0 -27
6 -30 13 -5 10 -7 10 -12 0 -12 -27 -24 -11 -24 30 0 31 6 49 20 62 20 18 20
17 20 -18 0 -21 5 -37 10 -37 6 0 10 18 10 40 0 46 -17 53 -50 20 -15 -15 -20
-33 -20 -70 l0 -50 110 0 110 0 0 50 c0 37 -5 55 -20 70 -25 25 -50 26 -50 1
0 -11 -2 -26 -5 -33 -4 -9 2 -14 14 -14 16 0 19 5 14 31 l-6 30 21 -19 c16
-14 22 -31 22 -63 0 -41 -12 -57 -24 -30 -5 10 -7 10 -12 0 -9 -20 -54 -16
-54 5 0 20 27 153 36 175 5 13 -25 41 -38 36 -2 -1 -13 -4 -25 -6z m42 -39 c0
-24 -4 -29 -25 -29 -20 0 -26 6 -28 27 -2 19 2 28 15 31 30 8 38 2 38 -29z
m-5 -54 c0 -5 -9 -10 -20 -10 -11 0 -20 5 -20 10 0 6 9 10 20 10 11 0 20 -4
20 -10z m-10 -45 c0 -14 -4 -25 -10 -25 -5 0 -10 11 -10 25 0 14 5 25 10 25 6
0 10 -11 10 -25z"/>
</g>
</svg>
