<?xml version="1.0" standalone="no"?>
<!DOCTYPE svg PUBLIC "-//W3C//DTD SVG 20010904//EN"
 "http://www.w3.org/TR/2001/REC-SVG-20010904/DTD/svg10.dtd">
<svg version="1.0" xmlns="http://www.w3.org/2000/svg"
 width="32.000000pt" height="32.000000pt" viewBox="0 0 32.000000 32.000000"
 preserveAspectRatio="xMidYMid meet">

<g transform="translate(0.000000,32.000000) scale(0.100000,-0.100000)"
fill="#03B8C9" stroke="none">
<path d="M35 309 c-4 -6 -4 -25 -1 -44 4 -19 2 -36 -4 -40 -5 -3 -10 -11 -10
-18 0 -6 7 -2 15 9 14 18 14 18 15 0 0 -13 5 -16 18 -11 9 4 28 10 42 13 36 7
61 32 54 54 -6 21 10 23 50 8 20 -7 26 -17 26 -39 0 -42 20 -81 42 -81 43 0 4
-94 -54 -130 -88 -54 -193 6 -209 119 -6 46 -6 46 -8 8 -2 -55 32 -113 79
-137 50 -25 90 -25 140 0 57 29 79 78 78 169 -2 73 -14 99 -42 88 -8 -3 -29 1
-46 10 -21 10 -47 14 -76 10 -30 -3 -47 0 -55 9 -14 17 -45 18 -54 3z m52 -24
c1 -16 1 -16 -3 -2 -3 9 -13 17 -22 16 -11 0 -12 -2 -4 -6 6 -2 12 -9 12 -15
0 -6 -6 -6 -15 2 -8 7 -12 17 -9 22 10 16 39 4 41 -17z m63 -10 c16 -19 -3
-45 -32 -45 -11 0 -28 -5 -39 -10 -28 -15 -23 1 10 38 33 36 43 39 61 17z
m-73 -19 c-5 -16 -24 -18 -30 -2 -4 10 0 14 14 13 10 -1 18 -6 16 -11z m218 3
c11 -16 -4 -59 -20 -59 -16 0 -31 43 -20 59 3 6 12 11 20 11 8 0 17 -5 20 -11z
m5 -80 c0 -11 -27 -12 -34 -1 -2 4 4 9 15 9 10 1 19 -2 19 -8z"/>
<path d="M260 239 c0 -24 23 -21 28 4 2 10 -3 17 -12 17 -10 0 -16 -9 -16 -21z"/>
<path d="M132 201 c-17 -17 -32 -34 -33 -38 0 -4 -2 -16 -4 -26 -2 -10 1 -14
8 -10 6 4 8 0 4 -9 -8 -23 19 -94 35 -90 22 6 78 52 78 65 0 7 -8 2 -18 -9
-26 -33 -72 -60 -72 -43 0 8 7 23 15 33 8 11 13 28 9 38 -4 13 2 21 20 28 31
11 53 4 59 -18 4 -15 5 -15 6 -1 0 9 -6 22 -14 29 -8 7 -15 22 -15 34 0 23
-17 46 -35 46 -6 0 -25 -13 -43 -29z m65 3 c2 -6 -4 -14 -13 -18 -11 -4 -15
-2 -11 8 3 8 1 17 -6 20 -7 3 -3 5 7 3 11 -1 21 -7 23 -13z m-9 -30 c8 5 10 2
6 -8 -8 -21 -21 -20 -34 3 -14 28 -12 38 3 16 8 -10 19 -15 25 -11z m-38 -4
c6 -11 7 -26 3 -33 -4 -6 -8 -21 -8 -32 0 -11 -7 -20 -15 -20 -17 0 -23 72 -7
93 13 16 14 15 27 -8z"/>
<path d="M129 152 c9 -7 10 -11 2 -15 -7 -4 -8 -5 0 -3 15 2 13 20 -3 24 -10
3 -10 2 1 -6z"/>
</g>
</svg>
