<?xml version="1.0" standalone="no"?>
<!DOCTYPE svg PUBLIC "-//W3C//DTD SVG 20010904//EN"
 "http://www.w3.org/TR/2001/REC-SVG-20010904/DTD/svg10.dtd">
<svg version="1.0" xmlns="http://www.w3.org/2000/svg"
 width="32.000000pt" height="32.000000pt" viewBox="0 0 32.000000 32.000000"
 preserveAspectRatio="xMidYMid meet">

<g transform="translate(0.000000,32.000000) scale(0.100000,-0.100000)"
fill="#03B8C9" stroke="none">
<path d="M145 301 c-3 -5 2 -16 11 -25 14 -15 13 -17 -12 -26 -15 -6 -24 -13
-21 -16 3 -3 14 -1 25 5 48 26 121 2 147 -49 19 -37 19 -73 0 -110 -9 -17 -13
-30 -11 -30 11 0 36 60 36 85 0 14 -7 40 -16 57 -13 25 -14 32 -2 39 11 7 10
11 -4 25 -20 21 -45 9 -27 -13 10 -11 4 -10 -24 3 -30 14 -34 20 -22 26 32 18
17 38 -29 38 -25 0 -47 -4 -51 -9z"/>
<path d="M85 250 c-17 -18 -14 -25 8 -21 20 4 -2 -24 -24 -30 -21 -6 -21 -7
-4 -9 15 -2 12 -4 -10 -10 -24 -6 -26 -8 -7 -9 36 -2 25 -19 -15 -24 l-38 -4
38 -1 c43 -2 50 -19 10 -25 l-28 -4 28 -2 c28 -1 37 -15 15 -24 -10 -4 -9 -6
1 -6 7 -1 32 -17 54 -37 37 -34 43 -36 89 -32 27 3 55 11 61 18 10 10 8 11 -8
5 -11 -5 -39 -10 -62 -13 -39 -4 -47 0 -79 32 -34 34 -36 40 -32 86 3 27 11
57 19 66 16 19 24 64 11 64 -5 0 -17 -9 -27 -20z"/>
<path d="M179 221 c7 -5 21 -6 31 -4 28 7 68 -40 68 -81 0 -51 -32 -84 -83
-84 -48 0 -91 36 -82 68 3 11 1 20 -4 20 -20 0 -8 -52 17 -75 41 -38 104 -35
138 6 36 43 35 91 -3 130 -21 20 -39 29 -63 29 -22 0 -29 -3 -19 -9z"/>
<path d="M120 198 c-11 -12 -20 -29 -19 -37 0 -10 4 -8 9 7 5 12 14 22 19 22
5 0 11 7 15 15 8 21 0 19 -24 -7z"/>
<path d="M189 158 c-5 -22 0 -31 25 -49 l31 -22 -22 24 c-12 13 -23 35 -25 49
l-4 25 -5 -27z"/>
</g>
</svg>
